<?xml version="1.0" encoding="UTF-8" standalone="no"?>
<svg
   xmlns:dc="http://purl.org/dc/elements/1.1/"
   xmlns:cc="http://creativecommons.org/ns#"
   xmlns:rdf="http://www.w3.org/1999/02/22-rdf-syntax-ns#"
   xmlns:svg="http://www.w3.org/2000/svg"
   xmlns="http://www.w3.org/2000/svg"
   viewBox="0 0 59.2048 59.0587"
   height="59.2048"
   width="59.0587"
   xml:space="preserve"
   id="svg2"
   version="1.1"><metadata
     id="metadata8"><rdf:RDF><cc:Work
         rdf:about=""><dc:format>image/svg+xml</dc:format><dc:type
           rdf:resource="http://purl.org/dc/dcmitype/StillImage" /></cc:Work></rdf:RDF></metadata><defs
     id="defs6"><pattern
       id="pattern62"
       height="59.2048"
       width="59.0587"
       y="0"
       x="0"
       patternUnits="userSpaceOnUse"
       ><g
         id="g14"
         transform="translate(20.4632)"><path
           id="path12"
           style="fill:#c91725;fill-opacity:1;fill-rule:nonzero;stroke:none"
           d="m 0,0 4.552,0 4.496,4.492 0,4.546 L 0,0 Z" /></g><g
         id="g18"
         transform="translate(29.511,18.1277)"><path
           id="path16"
           style="fill:#c91725;fill-opacity:1;fill-rule:nonzero;stroke:none"
           d="m 0,0 -18.132,-18.128 4.542,0 L 0,-4.547 0,0 Z" /></g><g
         id="g22"
         transform="translate(29.511,27.2164)"><path
           id="path20"
           style="fill:#c91725;fill-opacity:1;fill-rule:nonzero;stroke:none"
           d="m 0,0 -27.217,-27.216 4.542,0 L 0,-4.542 0,0 Z" /></g><g
         id="g26"
         transform="translate(22.7207,29.5106)"><path
           id="path24"
           style="fill:#c91725;fill-opacity:1;fill-rule:nonzero;stroke:none"
           d="m 0,0 -22.721,-22.72 0,-4.542 L 4.542,0 0,0 Z" /></g><g
         id="g30"
         transform="translate(13.6268,29.5106)"><path
           id="path28"
           style="fill:#c91725;fill-opacity:1;fill-rule:nonzero;stroke:none"
           d="m 0,0 -13.627,-13.631 0,-4.542 L 4.552,0 0,0 Z" /></g><g
         id="g34"
         transform="translate(4.5423,29.5106)"><path
           id="path32"
           style="fill:#c91725;fill-opacity:1;fill-rule:nonzero;stroke:none"
           d="m 0,0 -4.542,-4.542 0,-4.547 L 4.542,0 0,0 Z" /></g><g
         id="g38"
         transform="translate(50.0292,29.4556)"><path
           id="path36"
           style="fill:#c91725;fill-opacity:1;fill-rule:nonzero;stroke:none"
           d="M 0,0 4.542,0 9.03,4.496 9.03,9.038 0,0 Z" /></g><g
         id="g42"
         transform="translate(59.0587,47.588)"><path
           id="path40"
           style="fill:#c91725;fill-opacity:1;fill-rule:nonzero;stroke:none"
           d="m 0,0 -18.123,-18.132 4.551,0 L 0,-4.547 0,0 Z" /></g><g
         id="g46"
         transform="translate(59.0587,56.6725)"><path
           id="path44"
           style="fill:#c91725;fill-opacity:1;fill-rule:nonzero;stroke:none"
           d="m 0,0 -27.208,-27.217 4.552,0 L 0,-4.542 0,0 Z" /></g><g
         id="g50"
         transform="translate(52.2773,58.9709)"><path
           id="path48"
           style="fill:#c91725;fill-opacity:1;fill-rule:nonzero;stroke:none"
           d="m 0,0 -22.73,-22.72 0,-4.547 L 4.542,0 0,0 Z" /></g><g
         id="g54"
         transform="translate(43.1928,58.9709)"><path
           id="path52"
           style="fill:#c91725;fill-opacity:1;fill-rule:nonzero;stroke:none"
           d="m 0,0 -13.645,-13.636 0,-4.542 L 4.542,0 0,0 Z" /></g><g
         id="g58"
         transform="translate(34.1083,58.9709)"><path
           id="path56"
           style="fill:#c91725;fill-opacity:1;fill-rule:nonzero;stroke:none"
           d="m 0,0 -4.561,-4.546 0,-4.543 L 4.542,0 0,0 Z" /></g><path
         id="path60"
         style="fill:#c91725;fill-opacity:1;fill-rule:nonzero;stroke:none"
         d="m 0,29.492 29.483,0 0,29.713 -29.483,0 0,-29.713 z" /></pattern></defs>
           <rect width="59.0587" height="59.2048" fill="url(#pattern62)" /></svg>